<svg xmlns="http://www.w3.org/2000/svg" xmlns:xlink="http://www.w3.org/1999/xlink" preserveAspectRatio="xMidYMid" viewBox="0 0 520.5 466.5">
  <defs>
    <style>
      .jianli1,.jianli2  {
        stroke: #fff;
        stroke-width:20px;
        fill: none;
        fill-rule: evenodd;
      }
      .jianli2 { 
        stroke-width: 5px;
      }
    </style>
  </defs>
  <g>
    <path d="M1.594,188.625 L42.594,189.625 C42.594,189.625 45.870,193.968 55.594,181.625 C65.318,169.282 78.594,147.625 78.594,147.625 C78.594,147.625 76.817,142.466 88.594,142.625 C100.371,142.784 142.594,142.625 142.594,142.625 C142.594,142.625 149.670,143.222 151.594,147.625 C153.517,152.028 173.594,186.625 173.594,186.625 C173.594,186.625 177.407,189.523 182.594,189.625 C187.780,189.727 313.594,189.625 313.594,189.625 C313.594,189.625 320.297,189.794 320.594,196.625 C320.890,203.456 320.594,290.625 320.594,290.625 C320.594,290.625 318.120,299.640 329.594,299.625 C341.067,299.610 353.594,299.625 353.594,299.625 C353.594,299.625 360.598,299.052 360.594,290.682 C360.590,282.313 360.594,197.625 360.594,197.625 C360.594,197.625 361.028,189.970 369.594,189.970 C378.160,189.970 476.594,189.970 476.594,189.970 " class="jianli1"/>
    <path d="M111.594,177.625 L111.558,270.625 " class="jianli1"/>
    <path d="M208.594,205.625 L116.594,355.625 " class="jianli1"/>
    <path d="M189.594,245.625 L252.594,354.715 " class="jianli1"/>
    <path d="M241.429,260.305 L241.429,211.944 L281.180,211.944 L281.180,260.305 L241.429,260.305 Z" class="jianli1"/>
    <path d="M244.594,235.195 L278.594,235.195 " class="jianli1"/>
    <path d="M258.781,176.625 L271.594,142.625 C271.594,142.625 271.820,138.801 276.500,138.625 C281.180,138.449 327.594,138.625 327.594,138.625 " class="jianli1"/>
    <path d="M293.594,142.625 L309.594,177.891 " class="jianli1"/>
    <path d="M391.594,230.150 L465.904,230.150 L465.904,290.682 C465.904,290.682 466.544,302.629 455.594,302.629 C444.644,302.629 434.594,302.629 434.594,302.629 " class="jianli1"/>
    <path d="M420.594,205.625 C420.594,205.625 429.864,291.730 385.594,302.629 " class="jianli1"/>
    <path d="M224.034,127.493 C208.011,127.493 208.011,115.897 208.011,115.897 L202.421,18.595 C202.421,18.595 202.794,1.512 224.034,1.512 C245.275,1.512 245.275,18.595 245.275,18.595 L238.751,115.897 C238.751,115.897 240.058,127.493 224.034,127.493 ZM224.594,132.625 C236.192,132.625 245.594,142.027 245.594,153.625 C245.594,165.223 236.192,174.625 224.594,174.625 C212.996,174.625 203.594,165.223 203.594,153.625 C203.594,142.027 212.996,132.625 224.594,132.625 Z" class="jianli1 jianli2"/>
  </g>
</svg>
